# xmcd
#
# Track frame offsets:
#	150
#	14861
#	31331
#	44231
#	61562
#	77457
#	93191
#	109533
#	121147
#	133441
#
# Disc length: 2018 seconds
#
# Revision: 1
# Processed by: cddbd v1.5.1PL0 Copyright (c) Steve Scherf et al.
# Submitted via: audiograbber 1.83.01
#
DISCID=7f07e00a
DTITLE=Tina Rauch and Country Time Special - Finest Collection
DYEAR=1900
DGENRE=
TTITLE0=Rose Garden
TTITLE1=Blue Bayou
TTITLE2=She`s Got You
TTITLE3=Still
TTITLE4=Help Me Make It Trough The Night
TTITLE5=Hot News Song
TTITLE6=I Will Olways Love You
TTITLE7=Stand By Your Man
TTITLE8=Somewhere Between
TTITLE9=Love Can Build A Bridge
EXTD=
EXTT0=
EXTT1=
EXTT2=
EXTT3=
EXTT4=
EXTT5=
EXTT6=
EXTT7=
EXTT8=
EXTT9=
PLAYORDER=
